<?xml version="1.0" encoding="utf-8"?>
<!-- Generator: Adobe Illustrator 17.1.0, SVG Export Plug-In . SVG Version: 6.00 Build 0)  -->
<!DOCTYPE svg PUBLIC "-//W3C//DTD SVG 1.1//EN" "http://www.w3.org/Graphics/SVG/1.1/DTD/svg11.dtd">
<svg version="1.1" id="Layer_1" xmlns="http://www.w3.org/2000/svg" xmlns:xlink="http://www.w3.org/1999/xlink" x="0px" y="0px"
	 viewBox="0 0 227.6 40.6" style="enable-background:new 0 0 227.6 40.6;" xml:space="preserve">
<style type="text/css">
	.st0{fill:#FFFFFF;}
	.st1{font-family:'DINPro-Bold';}
	.st2{font-size:16.0251;}
	.st3{font-size:17.3071;}
	.st4{fill:#FFFFFF;stroke:#FFFFFF;stroke-width:0.4538;stroke-miterlimit:10;}
</style>
<g>
	<g>
		<text transform="matrix(1 0 0 1 126.4569 18.0295)"><tspan x="0" y="0" class="st0 st1 st2">DISCOVER</tspan><tspan x="0" y="18.8" class="st0 st1 st3">RARE VALUE</tspan></text>
		<g>
			<g>
				<g>
					<path class="st0" d="M52.5,24.7h3.3V6c-0.3,0.2-0.6,0.4-1,0.6l-3.4,1.9l-0.2-0.4c1.3-0.7,2.5-1.4,3.5-2.1
						c1.1-0.7,2.1-1.5,3-2.4h0.6v21h3.3v0.4h-9.1V24.7z"/>
					<path class="st0" d="M67.4,14.2c0.2-0.1,0.3-0.2,0.5-0.2c0.2-0.1,0.3-0.2,0.5-0.2c0.2-0.1,0.5-0.2,0.7-0.3
						c0.3-0.1,0.6-0.2,1-0.3c0.9-0.2,1.6-0.5,2.2-0.9c0.6-0.4,1-0.8,1.3-1.2c0.3-0.5,0.6-1,0.7-1.6c0.1-0.6,0.2-1.2,0.2-1.9
						c0-0.5,0-0.9-0.1-1.3c-0.1-0.4-0.3-0.8-0.5-1.1c-0.2-0.3-0.5-0.6-0.9-0.8c-0.4-0.2-0.9-0.3-1.5-0.3c-0.6,0-1.2,0.1-1.6,0.3
						c-0.4,0.2-0.7,0.4-1,0.6c-0.2,0.2-0.4,0.5-0.5,0.7c-0.1,0.2-0.1,0.4-0.1,0.5c0,0.5,0.1,0.9,0.3,1.2c0.2,0.3,0.3,0.5,0.3,0.7
						c0,0.4-0.1,0.6-0.4,0.7c-0.2,0.1-0.5,0.2-0.9,0.2c-0.9,0-1.3-0.4-1.3-1.3c0-0.3,0.1-0.6,0.3-1.1c0.2-0.5,0.5-0.9,0.9-1.4
						c0.4-0.5,1-0.8,1.7-1.2c0.7-0.3,1.6-0.5,2.6-0.5c0.9,0,1.8,0.1,2.5,0.4c0.7,0.3,1.3,0.7,1.7,1.1c0.5,0.4,0.8,0.9,1,1.4
						c0.2,0.5,0.3,1,0.3,1.5c0,0.8-0.2,1.5-0.7,2.1c-0.5,0.6-1,1.1-1.7,1.5c-0.6,0.4-1.3,0.7-1.9,0.9c-0.6,0.2-1.1,0.4-1.5,0.4v0.1
						c0.8,0,1.7,0.2,2.4,0.5c0.8,0.3,1.5,0.7,2.1,1.2c0.6,0.5,1.1,1.1,1.4,1.8c0.4,0.7,0.5,1.5,0.5,2.4c0,0.8-0.2,1.6-0.5,2.3
						c-0.3,0.8-0.8,1.5-1.4,2.1c-0.6,0.6-1.4,1.1-2.2,1.5c-0.9,0.4-1.8,0.6-2.9,0.6c-1,0-1.8-0.1-2.5-0.4c-0.7-0.3-1.3-0.6-1.7-1.1
						c-0.5-0.4-0.8-0.9-1.1-1.5c-0.3-0.5-0.4-1.1-0.5-1.7l0.4-0.1c0,0.3,0.1,0.6,0.3,1.1c0.2,0.5,0.4,0.9,0.8,1.4
						c0.4,0.5,0.9,0.9,1.6,1.2c0.7,0.3,1.6,0.5,2.6,0.5c0.6,0,1.2-0.1,1.7-0.3c0.5-0.2,1-0.5,1.4-1c0.4-0.5,0.7-1.1,0.9-1.9
						c0.2-0.8,0.3-1.9,0.3-3.1c0-0.6,0-1.3-0.1-1.9c-0.1-0.6-0.3-1.2-0.6-1.7c-0.3-0.5-0.7-0.9-1.2-1.2c-0.5-0.3-1.2-0.5-2-0.5
						c-0.7,0-1.3,0.1-1.9,0.3c-0.6,0.2-1.1,0.5-1.6,0.8L67.4,14.2z"/>
					<path class="st0" d="M82.7,14.2c0.2-0.1,0.3-0.2,0.5-0.2c0.2-0.1,0.3-0.2,0.5-0.2c0.2-0.1,0.5-0.2,0.7-0.3
						c0.3-0.1,0.6-0.2,1-0.3c0.9-0.2,1.6-0.5,2.2-0.9c0.6-0.4,1-0.8,1.3-1.2c0.3-0.5,0.5-1,0.7-1.6c0.1-0.6,0.2-1.2,0.2-1.9
						c0-0.5,0-0.9-0.1-1.3c-0.1-0.4-0.3-0.8-0.5-1.1c-0.2-0.3-0.5-0.6-0.9-0.8c-0.4-0.2-0.9-0.3-1.5-0.3c-0.6,0-1.2,0.1-1.6,0.3
						c-0.4,0.2-0.7,0.4-1,0.6c-0.2,0.2-0.4,0.5-0.5,0.7c-0.1,0.2-0.1,0.4-0.1,0.5c0,0.5,0.1,0.9,0.3,1.2c0.2,0.3,0.3,0.5,0.3,0.7
						c0,0.4-0.1,0.6-0.4,0.7c-0.2,0.1-0.5,0.2-0.9,0.2c-0.9,0-1.3-0.4-1.3-1.3c0-0.3,0.1-0.6,0.3-1.1c0.2-0.5,0.5-0.9,0.9-1.4
						c0.4-0.5,1-0.8,1.7-1.2C85.1,3.9,86,3.7,87,3.7c0.9,0,1.8,0.1,2.5,0.4c0.7,0.3,1.3,0.7,1.7,1.1c0.5,0.4,0.8,0.9,1,1.4
						c0.2,0.5,0.3,1,0.3,1.5c0,0.8-0.2,1.5-0.7,2.1c-0.5,0.6-1,1.1-1.7,1.5c-0.6,0.4-1.3,0.7-1.9,0.9c-0.6,0.2-1.1,0.4-1.5,0.4v0.1
						c0.8,0,1.7,0.2,2.4,0.5c0.8,0.3,1.5,0.7,2.1,1.2c0.6,0.5,1.1,1.1,1.4,1.8c0.4,0.7,0.5,1.5,0.5,2.4c0,0.8-0.2,1.6-0.5,2.3
						c-0.3,0.8-0.8,1.5-1.4,2.1c-0.6,0.6-1.4,1.1-2.2,1.5c-0.9,0.4-1.8,0.6-2.9,0.6c-1,0-1.8-0.1-2.5-0.4c-0.7-0.3-1.3-0.6-1.7-1.1
						c-0.5-0.4-0.8-0.9-1.1-1.5c-0.3-0.5-0.4-1.1-0.5-1.7l0.4-0.1c0,0.3,0.1,0.6,0.3,1.1c0.2,0.5,0.4,0.9,0.8,1.4
						c0.4,0.5,0.9,0.9,1.6,1.2c0.7,0.3,1.6,0.5,2.6,0.5c0.6,0,1.2-0.1,1.7-0.3c0.5-0.2,1-0.5,1.4-1c0.4-0.5,0.7-1.1,0.9-1.9
						c0.2-0.8,0.3-1.9,0.3-3.1c0-0.6,0-1.3-0.1-1.9c-0.1-0.6-0.3-1.2-0.6-1.7c-0.3-0.5-0.7-0.9-1.2-1.2c-0.5-0.3-1.2-0.5-2-0.5
						c-0.7,0-1.3,0.1-1.9,0.3C84,14,83.5,14.3,83,14.7L82.7,14.2z"/>
					<path class="st0" d="M95.6,14.6c0-1.2,0.1-2.4,0.3-3.7c0.2-1.3,0.5-2.5,1-3.5c0.5-1.1,1.2-2,2.1-2.6c0.9-0.7,2.1-1,3.5-1
						c1.4,0,2.6,0.3,3.5,1c0.9,0.7,1.6,1.6,2.1,2.6c0.5,1.1,0.9,2.3,1,3.5c0.2,1.3,0.3,2.5,0.3,3.7c0,1.2-0.1,2.4-0.3,3.7
						c-0.2,1.3-0.5,2.5-1,3.5c-0.5,1.1-1.2,2-2.1,2.6c-0.9,0.7-2.1,1-3.5,1c-1.4,0-2.6-0.3-3.5-1c-0.9-0.7-1.6-1.6-2.1-2.6
						c-0.5-1.1-0.9-2.3-1-3.5C95.7,17.1,95.6,15.8,95.6,14.6z M98.6,14.6c0,1.8,0.1,3.4,0.2,4.7c0.1,1.3,0.3,2.4,0.6,3.3
						c0.3,0.9,0.7,1.5,1.2,1.9c0.5,0.4,1.2,0.6,2,0.6c0.8,0,1.5-0.2,2-0.6c0.5-0.4,0.9-1,1.2-1.9c0.3-0.9,0.5-1.9,0.6-3.3
						c0.1-1.3,0.2-2.9,0.2-4.7s-0.1-3.4-0.2-4.7c-0.1-1.3-0.3-2.4-0.6-3.3c-0.3-0.9-0.7-1.5-1.2-1.9c-0.5-0.4-1.2-0.6-2-0.6
						c-0.8,0-1.5,0.2-2,0.6c-0.5,0.4-0.9,1-1.2,1.9c-0.3,0.9-0.5,1.9-0.6,3.3C98.6,11.2,98.6,12.8,98.6,14.6z"/>
				</g>
			</g>
			<g>
				<g>
					<path class="st0" d="M3.9,33.3h0.7l1.9,5.2H5.8l-0.6-1.6h-2l-0.6,1.6H1.9L3.9,33.3z M4.2,34.1L4.2,34.1l-0.8,2.2H5L4.2,34.1z"
						/>
					<path class="st0" d="M6.7,33.3h0.8l1.4,4.3h0l1.5-4.3H11l-1.9,5.2H8.4L6.7,33.3z"/>
					<path class="st0" d="M12.2,33.3h3.7v0.6h-3v1.6h2.6v0.6h-2.6v1.8h3v0.6h-3.7V33.3z"/>
					<path class="st0" d="M17.3,33.3H18l2.8,4.1h0v-4.1h0.6v5.2h-0.7l-2.8-4.1h0v4.1h-0.6V33.3z"/>
					<path class="st0" d="M27,36.8c0,1.2-0.8,1.8-2,1.8c-1.2,0-2-0.7-2-1.8v-3.5h0.7v3.4c0,0.9,0.4,1.4,1.3,1.4s1.3-0.5,1.3-1.4
						v-3.4H27V36.8z"/>
					<path class="st0" d="M28.6,33.3h3.7v0.6h-3v1.6h2.6v0.6h-2.6v1.8h3v0.6h-3.7V33.3z"/>
					<path class="st0" d="M38.8,33.1c1.6,0,2.6,1.1,2.6,2.7c0,1.6-1,2.7-2.6,2.7c-1.6,0-2.6-1.1-2.6-2.7
						C36.1,34.3,37.1,33.1,38.8,33.1z M38.8,38.1c1.3,0,1.9-1,1.9-2.2c0-1.2-0.6-2.2-1.9-2.2c-1.3,0-1.9,1-1.9,2.2
						C36.9,37,37.5,38.1,38.8,38.1z"/>
					<path class="st0" d="M42.9,33.3h3.3v0.6h-2.7v1.6H46V36h-2.5v2.5h-0.7V33.3z"/>
					<path class="st0" d="M51.6,33.9H50v-0.6h3.8v0.6h-1.6v4.6h-0.7V33.9z"/>
					<path class="st0" d="M55.1,33.3h0.7v2.2h2.9v-2.2h0.7v5.2h-0.7v-2.4h-2.9v2.4h-0.7V33.3z"/>
					<path class="st0" d="M61,33.3h3.7v0.6h-3v1.6h2.6v0.6h-2.6v1.8h3v0.6H61V33.3z"/>
					<path class="st0" d="M70.2,33.3h0.7l1.9,5.2h-0.7l-0.6-1.6h-2l-0.6,1.6h-0.7L70.2,33.3z M70.6,34.1L70.6,34.1l-0.8,2.2h1.6
						L70.6,34.1z"/>
					<path class="st0" d="M74,33.3h0.9l1.6,4.2l1.6-4.2H79v5.2h-0.7v-4.2h0l-1.5,4.2h-0.6l-1.5-4.2h0v4.2H74V33.3z"/>
					<path class="st0" d="M80.7,33.3h3.7v0.6h-3v1.6H84v0.6h-2.6v1.8h3v0.6h-3.7V33.3z"/>
					<path class="st0" d="M85.8,33.3h2.4c0.8,0,1.7,0.3,1.7,1.5c0,0.7-0.3,1.3-1.2,1.5l1.4,2.3h-0.8l-1.4-2.2h-1.3v2.2h-0.7V33.3z
						 M86.4,35.7H88c0.6,0,1.1-0.2,1.1-0.9c0-0.7-0.5-0.9-1.1-0.9h-1.6V35.7z"/>
					<path class="st0" d="M91.3,33.3H92v5.2h-0.7V33.3z"/>
					<path class="st0" d="M97.8,34.9c-0.2-0.7-0.9-1.2-1.6-1.2c-1.3,0-1.9,1-1.9,2.2c0,1.2,0.6,2.2,1.9,2.2c0.9,0,1.6-0.6,1.7-1.5
						l0.7,0.1c-0.2,1.2-1.3,2-2.4,2c-1.6,0-2.6-1.1-2.6-2.7c0-1.6,1-2.7,2.6-2.7c1.1,0,2.1,0.5,2.4,1.6L97.8,34.9z"/>
					<path class="st0" d="M101.5,33.3h0.7l1.9,5.2h-0.7l-0.6-1.6h-2l-0.6,1.6h-0.7L101.5,33.3z M101.9,34.1L101.9,34.1l-0.8,2.2h1.6
						L101.9,34.1z"/>
					<path class="st0" d="M108.6,34.8c0-0.8-0.6-1.1-1.3-1.1c-0.5,0-1.2,0.2-1.2,0.8c0,1.4,3.3,0.3,3.3,2.5c0,1.1-1,1.6-2,1.6
						c-1.2,0-2.2-0.5-2.3-1.8l0.7-0.1c0,0.9,0.6,1.3,1.5,1.3c0.7,0,1.3-0.3,1.3-1c0-1.4-3.3-0.5-3.3-2.4c0-1,1-1.5,1.9-1.5
						c1.1,0,2,0.5,2.1,1.6L108.6,34.8z"/>
				</g>
			</g>
		</g>
		<line class="st4" x1="118" y1="4.2" x2="118" y2="38.1"/>
	</g>
</g>
</svg>
