<?xml version="1.0" encoding="utf-8"?>
<!-- Generator: Adobe Illustrator 17.1.0, SVG Export Plug-In . SVG Version: 6.00 Build 0)  -->
<!DOCTYPE svg PUBLIC "-//W3C//DTD SVG 1.1//EN" "http://www.w3.org/Graphics/SVG/1.1/DTD/svg11.dtd">
<svg version="1.1" id="Layer_1" xmlns="http://www.w3.org/2000/svg" xmlns:xlink="http://www.w3.org/1999/xlink" x="0px" y="0px"
	 viewBox="0 0 245 94" style="enable-background:new 0 0 245 94;" xml:space="preserve">
<style type="text/css">
	.st0{fill:#FFFFFF;}
	.st1{fill:#FFFFFF;stroke:#FFFFFF;stroke-width:0.4538;stroke-miterlimit:10;}
</style>
<g>
	<g>
		<g>
			<path class="st0" d="M144.217,38.267c-0.816,1.137-1.891,1.666-3.445,1.666h-4.117V28.525h4.117c1.555,0,2.629,0.528,3.445,1.666
				c0.705,0.978,0.721,2.147,0.721,4.038S144.922,37.289,144.217,38.267z M142.246,31.217c-0.369-0.465-0.914-0.705-1.666-0.705
				h-1.699v7.434h1.699c0.752,0,1.297-0.24,1.666-0.705c0.416-0.497,0.465-1.218,0.465-3.012S142.662,31.713,142.246,31.217z"/>
			<path class="st0" d="M147.215,39.933V28.525h2.227v11.407H147.215z"/>
			<path class="st0" d="M155.242,40.029c-1.73,0-3.043-0.369-4.164-1.506l1.441-1.442c0.721,0.721,1.697,0.961,2.74,0.961
				c1.328,0,2.033-0.513,2.033-1.426c0-0.385-0.111-0.705-0.352-0.945c-0.225-0.208-0.449-0.305-1.025-0.385l-1.361-0.208
				c-1.01-0.145-1.699-0.449-2.211-0.945c-0.545-0.529-0.818-1.282-0.818-2.243c0-2.035,1.506-3.46,3.975-3.46
				c1.57,0,2.707,0.384,3.684,1.33l-1.408,1.394c-0.705-0.689-1.588-0.785-2.34-0.785c-1.186,0-1.746,0.657-1.746,1.442
				c0,0.305,0.08,0.593,0.32,0.817c0.225,0.208,0.561,0.368,1.041,0.432l1.361,0.208c1.041,0.144,1.684,0.417,2.18,0.897
				c0.609,0.561,0.881,1.377,0.881,2.403C159.473,38.779,157.646,40.029,155.242,40.029z"/>
			<path class="st0" d="M165.402,40.029c-1.314,0-2.275-0.433-3.061-1.202c-1.137-1.138-1.152-2.419-1.152-4.598
				c0-2.179,0.016-3.461,1.152-4.598c0.785-0.769,1.746-1.202,3.061-1.202c2.131,0,3.766,1.217,4.182,3.604h-2.275
				c-0.225-0.929-0.801-1.618-1.906-1.618c-0.609,0-1.105,0.225-1.426,0.593c-0.416,0.481-0.561,1.042-0.561,3.221
				c0,2.179,0.145,2.74,0.561,3.22c0.32,0.369,0.816,0.593,1.426,0.593c1.105,0,1.699-0.689,1.924-1.618h2.258
				C169.168,38.811,167.518,40.029,165.402,40.029z"/>
			<path class="st0" d="M178.223,38.827c-0.77,0.769-1.73,1.202-3.045,1.202s-2.291-0.433-3.061-1.202
				c-1.137-1.138-1.152-2.419-1.152-4.598c0-2.179,0.016-3.461,1.152-4.598c0.77-0.769,1.746-1.202,3.061-1.202
				s2.275,0.433,3.045,1.202c1.137,1.137,1.17,2.419,1.17,4.598C179.393,36.408,179.359,37.689,178.223,38.827z M176.604,31.024
				c-0.32-0.368-0.816-0.609-1.426-0.609s-1.105,0.241-1.441,0.609c-0.416,0.481-0.545,1.025-0.545,3.205
				c0,2.179,0.129,2.708,0.545,3.188c0.336,0.369,0.832,0.625,1.441,0.625s1.105-0.256,1.426-0.625
				c0.418-0.48,0.561-1.009,0.561-3.188C177.164,32.05,177.021,31.505,176.604,31.024z"/>
			<path class="st0" d="M185.658,39.933h-1.666l-3.766-11.407h2.307l2.291,7.434l2.291-7.434h2.324L185.658,39.933z"/>
			<path class="st0" d="M190.818,39.933V28.525h7.514v1.986h-5.287v2.676h4.502v1.987h-4.502v2.771h5.287v1.987H190.818z"/>
			<path class="st0" d="M206.57,39.933l-2.227-4.55h-1.604v4.55h-2.227V28.525h4.471c2.322,0,3.701,1.586,3.701,3.493
				c0,1.602-0.979,2.595-2.084,2.996l2.549,4.918H206.57z M204.84,30.512h-2.1v3.012h2.1c0.977,0,1.617-0.625,1.617-1.506
				C206.457,31.137,205.816,30.512,204.84,30.512z"/>
			<path class="st0" d="M143.301,58.728l-2.404-4.914h-1.73v4.914h-2.404v-12.32h4.826c2.51,0,3.998,1.713,3.998,3.772
				c0,1.73-1.057,2.803-2.25,3.236l2.752,5.312H143.301z M141.434,48.553h-2.268v3.253h2.268c1.055,0,1.746-0.675,1.746-1.626
				S142.488,48.553,141.434,48.553z"/>
			<path class="st0" d="M155.088,58.728l-0.727-2.18h-4.379l-0.744,2.18h-2.508l4.48-12.32h1.887l4.498,12.32H155.088z
				 M152.215,50.041l-1.557,4.482h3.062L152.215,50.041z"/>
			<path class="st0" d="M165.662,58.728l-2.406-4.914h-1.729v4.914h-2.406v-12.32h4.828c2.508,0,3.996,1.713,3.996,3.772
				c0,1.73-1.055,2.803-2.248,3.236l2.75,5.312H165.662z M163.793,48.553h-2.266v3.253h2.266c1.057,0,1.748-0.675,1.748-1.626
				S164.85,48.553,163.793,48.553z"/>
			<path class="st0" d="M170.439,58.728v-12.32h8.115v2.146h-5.709v2.89h4.861v2.146h-4.861v2.994h5.709v2.146H170.439z"/>
			<path class="st0" d="M189.408,58.728h-1.801l-4.066-12.32h2.492l2.475,8.029l2.475-8.029h2.508L189.408,58.728z"/>
			<path class="st0" d="M201.297,58.728l-0.727-2.18h-4.377l-0.744,2.18h-2.51l4.482-12.32h1.885l4.5,12.32H201.297z
				 M198.424,50.041l-1.557,4.482h3.062L198.424,50.041z"/>
			<path class="st0" d="M205.33,58.728v-12.32h2.406v10.175h5.588v2.146H205.33z"/>
			<path class="st0" d="M219.02,58.832c-2.525,0-4.533-1.713-4.533-4.326v-8.098h2.406v8.012c0,1.419,0.83,2.267,2.127,2.267
				c1.299,0,2.146-0.848,2.146-2.267v-8.012h2.387v8.098C223.553,57.118,221.547,58.832,219.02,58.832z"/>
			<path class="st0" d="M226.238,58.728v-12.32h8.115v2.146h-5.711v2.89h4.863v2.146h-4.863v2.994h5.711v2.146H226.238z"/>
		</g>
		<g>
			<g>
				<g>
					<path class="st0" d="M61.347,46.652h3.275V27.945c-0.295,0.217-0.63,0.433-1.003,0.649l-3.364,1.918l-0.236-0.384
						c1.298-0.727,2.479-1.425,3.541-2.095c1.062-0.669,2.066-1.475,3.01-2.419h0.59v21.037h3.275v0.413h-9.088V46.652z"/>
					<path class="st0" d="M76.218,36.089c0.157-0.078,0.314-0.158,0.472-0.236c0.157-0.078,0.339-0.157,0.546-0.236
						c0.207-0.078,0.452-0.162,0.738-0.251c0.285-0.088,0.624-0.182,1.018-0.28c0.865-0.236,1.583-0.531,2.154-0.885
						c0.571-0.354,1.018-0.767,1.343-1.239c0.324-0.472,0.551-0.993,0.678-1.563c0.128-0.571,0.192-1.19,0.192-1.859
						c0-0.472-0.05-0.919-0.147-1.343c-0.099-0.422-0.266-0.796-0.502-1.121c-0.236-0.325-0.546-0.58-0.93-0.768
						c-0.384-0.187-0.87-0.28-1.46-0.28c-0.649,0-1.18,0.084-1.593,0.251c-0.413,0.167-0.733,0.364-0.959,0.59
						c-0.226,0.227-0.379,0.453-0.457,0.679c-0.079,0.227-0.118,0.409-0.118,0.546c0,0.531,0.083,0.935,0.251,1.21
						c0.167,0.276,0.251,0.522,0.251,0.738c0,0.354-0.123,0.6-0.369,0.738c-0.246,0.138-0.536,0.206-0.87,0.206
						c-0.866,0-1.299-0.423-1.299-1.269c0-0.255,0.083-0.614,0.251-1.077c0.167-0.462,0.458-0.919,0.871-1.372
						c0.413-0.452,0.969-0.841,1.667-1.166c0.698-0.324,1.568-0.487,2.611-0.487c0.944,0,1.765,0.147,2.464,0.443
						c0.698,0.295,1.273,0.664,1.725,1.106c0.452,0.443,0.787,0.924,1.003,1.446c0.216,0.521,0.324,1.018,0.324,1.49
						c0,0.826-0.241,1.534-0.722,2.125c-0.483,0.59-1.043,1.082-1.682,1.475c-0.639,0.394-1.284,0.698-1.933,0.915
						c-0.649,0.217-1.141,0.354-1.475,0.413v0.059c0.845,0.039,1.662,0.206,2.449,0.502c0.787,0.295,1.485,0.703,2.095,1.225
						c0.61,0.521,1.092,1.136,1.446,1.844c0.354,0.708,0.531,1.505,0.531,2.39c0,0.787-0.172,1.563-0.517,2.331
						c-0.344,0.767-0.826,1.455-1.446,2.065c-0.62,0.61-1.368,1.102-2.242,1.476c-0.876,0.373-1.845,0.561-2.907,0.561
						c-0.984,0-1.82-0.133-2.508-0.398c-0.689-0.265-1.259-0.62-1.711-1.062c-0.453-0.443-0.807-0.934-1.062-1.475
						c-0.256-0.541-0.433-1.097-0.531-1.667l0.413-0.089c0.039,0.276,0.137,0.649,0.295,1.121c0.157,0.472,0.428,0.944,0.811,1.416
						c0.384,0.472,0.915,0.881,1.593,1.225c0.678,0.345,1.559,0.517,2.641,0.517c0.609,0,1.18-0.088,1.711-0.265
						c0.531-0.177,0.988-0.502,1.372-0.974c0.384-0.472,0.684-1.116,0.9-1.933c0.217-0.816,0.324-1.863,0.324-3.142
						c0-0.649-0.049-1.293-0.147-1.933c-0.099-0.639-0.295-1.21-0.591-1.711c-0.295-0.502-0.698-0.91-1.209-1.225
						c-0.512-0.315-1.18-0.472-2.007-0.472c-0.689,0-1.318,0.103-1.888,0.31c-0.571,0.206-1.102,0.487-1.594,0.84L76.218,36.089z"/>
					<path class="st0" d="M91.56,36.089c0.158-0.078,0.315-0.158,0.472-0.236c0.158-0.078,0.339-0.157,0.546-0.236
						c0.206-0.078,0.452-0.162,0.738-0.251c0.284-0.088,0.624-0.182,1.017-0.28c0.866-0.236,1.584-0.531,2.155-0.885
						c0.57-0.354,1.018-0.767,1.343-1.239c0.324-0.472,0.55-0.993,0.678-1.563c0.128-0.571,0.192-1.19,0.192-1.859
						c0-0.472-0.049-0.919-0.148-1.343c-0.098-0.422-0.265-0.796-0.501-1.121c-0.236-0.325-0.546-0.58-0.93-0.768
						c-0.384-0.187-0.87-0.28-1.461-0.28c-0.649,0-1.18,0.084-1.592,0.251c-0.414,0.167-0.733,0.364-0.96,0.59
						c-0.226,0.227-0.379,0.453-0.457,0.679c-0.079,0.227-0.118,0.409-0.118,0.546c0,0.531,0.083,0.935,0.25,1.21
						c0.167,0.276,0.251,0.522,0.251,0.738c0,0.354-0.124,0.6-0.369,0.738c-0.246,0.138-0.536,0.206-0.87,0.206
						c-0.866,0-1.298-0.423-1.298-1.269c0-0.255,0.083-0.614,0.25-1.077c0.167-0.462,0.458-0.919,0.871-1.372
						c0.413-0.452,0.968-0.841,1.667-1.166c0.698-0.324,1.568-0.487,2.611-0.487c0.945,0,1.766,0.147,2.464,0.443
						c0.698,0.295,1.273,0.664,1.725,1.106c0.453,0.443,0.787,0.924,1.003,1.446c0.217,0.521,0.325,1.018,0.325,1.49
						c0,0.826-0.241,1.534-0.723,2.125c-0.482,0.59-1.043,1.082-1.682,1.475c-0.639,0.394-1.283,0.698-1.933,0.915
						c-0.65,0.217-1.141,0.354-1.475,0.413v0.059c0.845,0.039,1.662,0.206,2.449,0.502c0.786,0.295,1.485,0.703,2.095,1.225
						c0.61,0.521,1.091,1.136,1.446,1.844c0.354,0.708,0.531,1.505,0.531,2.39c0,0.787-0.172,1.563-0.516,2.331
						c-0.345,0.767-0.827,1.455-1.446,2.065c-0.62,0.61-1.368,1.102-2.243,1.476c-0.876,0.373-1.844,0.561-2.907,0.561
						c-0.984,0-1.819-0.133-2.507-0.398c-0.689-0.265-1.26-0.62-1.712-1.062c-0.452-0.443-0.806-0.934-1.062-1.475
						c-0.257-0.541-0.433-1.097-0.531-1.667l0.413-0.089c0.039,0.276,0.137,0.649,0.295,1.121c0.157,0.472,0.428,0.944,0.812,1.416
						c0.384,0.472,0.914,0.881,1.593,1.225c0.678,0.345,1.559,0.517,2.641,0.517c0.609,0,1.18-0.088,1.711-0.265
						c0.531-0.177,0.988-0.502,1.373-0.974c0.383-0.472,0.683-1.116,0.9-1.933c0.216-0.816,0.324-1.863,0.324-3.142
						c0-0.649-0.05-1.293-0.148-1.933c-0.098-0.639-0.295-1.21-0.59-1.711c-0.295-0.502-0.698-0.91-1.21-1.225
						c-0.512-0.315-1.18-0.472-2.007-0.472c-0.689,0-1.318,0.103-1.888,0.31c-0.571,0.206-1.102,0.487-1.593,0.84L91.56,36.089z"/>
					<path class="st0" d="M104.484,36.532c0-1.18,0.093-2.414,0.28-3.703c0.187-1.288,0.536-2.469,1.047-3.541
						c0.511-1.072,1.214-1.952,2.11-2.641c0.895-0.688,2.051-1.032,3.467-1.032c1.417,0,2.572,0.344,3.467,1.032
						c0.895,0.689,1.598,1.569,2.11,2.641c0.512,1.072,0.861,2.252,1.047,3.541c0.187,1.288,0.28,2.522,0.28,3.703
						c0,1.2-0.094,2.444-0.28,3.733c-0.187,1.288-0.536,2.469-1.047,3.541c-0.512,1.072-1.215,1.952-2.11,2.641
						c-0.895,0.688-2.051,1.033-3.467,1.033c-1.416,0-2.571-0.345-3.467-1.033c-0.895-0.688-1.599-1.568-2.11-2.641
						c-0.511-1.072-0.861-2.252-1.047-3.541C104.577,38.976,104.484,37.732,104.484,36.532z M107.435,36.532
						c0,1.829,0.054,3.408,0.162,4.736c0.108,1.328,0.305,2.419,0.59,3.275c0.285,0.855,0.684,1.49,1.195,1.903
						c0.511,0.413,1.18,0.62,2.006,0.62c0.827,0,1.495-0.206,2.007-0.62c0.512-0.413,0.91-1.047,1.195-1.903
						c0.284-0.856,0.481-1.948,0.59-3.275c0.108-1.328,0.163-2.907,0.163-4.736s-0.055-3.403-0.163-4.721
						c-0.109-1.318-0.305-2.404-0.59-3.26c-0.286-0.856-0.684-1.49-1.195-1.903c-0.512-0.413-1.18-0.62-2.007-0.62
						c-0.825,0-1.495,0.207-2.006,0.62c-0.512,0.413-0.91,1.047-1.195,1.903c-0.285,0.856-0.482,1.943-0.59,3.26
						C107.489,33.129,107.435,34.702,107.435,36.532z"/>
				</g>
			</g>
			<g>
				<g>
					<path class="st0" d="M12.738,55.178h0.733l1.891,5.218h-0.74l-0.557-1.598h-1.979l-0.601,1.598h-0.74L12.738,55.178z
						 M13.104,56.035h-0.015l-0.791,2.162h1.554L13.104,56.035z"/>
					<path class="st0" d="M15.556,55.178h0.755l1.363,4.265h0.015l1.451-4.265h0.726l-1.855,5.218H17.3L15.556,55.178z"/>
					<path class="st0" d="M21.056,55.178h3.665v0.601h-2.976v1.612h2.587v0.601h-2.587v1.803h3.049v0.601h-3.738V55.178z"/>
					<path class="st0" d="M26.123,55.178h0.696l2.763,4.118h0.015v-4.118h0.645v5.218h-0.689l-2.77-4.111h-0.015v4.111h-0.645
						V55.178z"/>
					<path class="st0" d="M35.845,58.681c0,1.187-0.762,1.846-1.986,1.846c-1.224,0-1.986-0.659-1.986-1.846v-3.503h0.689v3.386
						c0,0.909,0.396,1.363,1.297,1.363s1.297-0.454,1.297-1.363v-3.386h0.689V58.681z"/>
					<path class="st0" d="M37.476,55.178h3.665v0.601h-2.976v1.612h2.587v0.601h-2.587v1.803h3.049v0.601h-3.738V55.178z"/>
					<path class="st0" d="M47.632,55.046c1.627,0,2.624,1.114,2.624,2.741c0,1.627-0.997,2.741-2.624,2.741
						c-1.627,0-2.624-1.114-2.624-2.741C45.008,56.16,46.005,55.046,47.632,55.046z M47.632,59.971c1.29,0,1.876-1.034,1.876-2.184
						c0-1.151-0.587-2.184-1.876-2.184c-1.29,0-1.876,1.033-1.876,2.184C45.756,58.937,46.342,59.971,47.632,59.971z"/>
					<path class="st0" d="M51.726,55.178h3.342v0.601h-2.653v1.554h2.462v0.601h-2.462v2.463h-0.689V55.178z"/>
					<path class="st0" d="M60.46,55.779h-1.569v-0.601h3.826v0.601h-1.569v4.617H60.46V55.779z"/>
					<path class="st0" d="M63.952,55.178h0.688v2.213h2.873v-2.213h0.689v5.218h-0.689v-2.404H64.64v2.404h-0.688V55.178z"/>
					<path class="st0" d="M69.833,55.178h3.665v0.601h-2.975v1.612h2.587v0.601h-2.587v1.803h3.049v0.601h-3.738V55.178z"/>
					<path class="st0" d="M79.066,55.178h0.732l1.891,5.218h-0.74l-0.557-1.598h-1.979l-0.601,1.598h-0.741L79.066,55.178z
						 M79.432,56.035h-0.015l-0.791,2.162h1.553L79.432,56.035z"/>
					<path class="st0" d="M82.887,55.178h0.909l1.597,4.236l1.598-4.236H87.9v5.218h-0.689v-4.2h-0.015l-1.524,4.2h-0.557
						l-1.525-4.2h-0.014v4.2h-0.689V55.178z"/>
					<path class="st0" d="M89.554,55.178h3.665v0.601h-2.976v1.612h2.588v0.601h-2.588v1.803h3.049v0.601h-3.738V55.178z"/>
					<path class="st0" d="M94.621,55.178h2.36c0.821,0,1.679,0.315,1.679,1.502c0,0.667-0.301,1.312-1.21,1.459l1.436,2.257h-0.835
						l-1.408-2.214h-1.333v2.214h-0.69V55.178z M95.311,57.582h1.561c0.646,0,1.099-0.205,1.099-0.901
						c0-0.689-0.453-0.901-1.099-0.901h-1.561V57.582z"/>
					<path class="st0" d="M100.181,55.178h0.69v5.218h-0.69V55.178z"/>
					<path class="st0" d="M106.69,56.79c-0.176-0.711-0.872-1.187-1.649-1.187c-1.29,0-1.876,1.033-1.876,2.184
						c0,1.151,0.586,2.184,1.876,2.184c0.901,0,1.583-0.623,1.707-1.546l0.726,0.088c-0.235,1.231-1.29,2.015-2.434,2.015
						c-1.627,0-2.624-1.114-2.624-2.741c0-1.627,0.996-2.741,2.624-2.741c1.121,0,2.052,0.542,2.367,1.613L106.69,56.79z"/>
					<path class="st0" d="M110.411,55.178h0.732l1.891,5.218h-0.74l-0.557-1.598h-1.979l-0.601,1.598h-0.74L110.411,55.178z
						 M110.777,56.035h-0.015l-0.791,2.162h1.554L110.777,56.035z"/>
					<path class="st0" d="M117.494,56.709c-0.037-0.769-0.623-1.106-1.348-1.106c-0.491,0-1.166,0.168-1.166,0.784
						c0,1.378,3.313,0.345,3.313,2.521c0,1.107-1.019,1.62-2.009,1.62c-1.238,0-2.22-0.491-2.308-1.825l0.747-0.066
						c0.037,0.946,0.631,1.334,1.532,1.334c0.659,0,1.29-0.301,1.29-1.041c0-1.437-3.313-0.462-3.313-2.397
						c0-1.011,0.967-1.488,1.868-1.488c1.078,0,1.958,0.491,2.104,1.627L117.494,56.709z"/>
				</g>
			</g>
		</g>
		<line class="st1" x1="126.894" y1="26.095" x2="126.894" y2="60.047"/>
	</g>
</g>
<g>
</g>
<g>
</g>
<g>
</g>
<g>
</g>
<g>
</g>
<g>
</g>
<g>
</g>
<g>
</g>
<g>
</g>
<g>
</g>
<g>
</g>
<g>
</g>
<g>
</g>
<g>
</g>
<g>
</g>
</svg>
