<?xml version="1.0" encoding="utf-8"?>
<!-- Generator: Adobe Illustrator 17.1.0, SVG Export Plug-In . SVG Version: 6.00 Build 0)  -->
<!DOCTYPE svg PUBLIC "-//W3C//DTD SVG 1.1//EN" "http://www.w3.org/Graphics/SVG/1.1/DTD/svg11.dtd">
<svg version="1.1" id="Layer_1" xmlns="http://www.w3.org/2000/svg"  preserveAspectRatio="none" xmlns:xlink="http://www.w3.org/1999/xlink"  width="254.528px" height="37.163px"  x="0px" y="0px"
	 viewBox="0 0 224.528 37.163" style="enable-background:new 0 0 224.528 37.163;" xml:space="preserve">
<style type="text/css">
	.st0{fill:#FFFFFF;}
	.st1{fill:#FFFFFF;stroke:#FFFFFF;stroke-width:0.4538;stroke-miterlimit:10;}
</style>
<g>
	<g>
		<g>
			<path class="st0" d="M133.472,12.653c-0.816,1.137-1.89,1.666-3.444,1.666h-4.117V2.911h4.117c1.555,0,2.628,0.528,3.444,1.666
				c0.705,0.978,0.722,2.147,0.722,4.038S134.177,11.675,133.472,12.653z M131.502,5.603c-0.369-0.465-0.914-0.705-1.667-0.705
				h-1.698v7.434h1.698c0.753,0,1.298-0.24,1.667-0.705c0.416-0.497,0.464-1.218,0.464-3.012S131.918,6.099,131.502,5.603z"/>
			<path class="st0" d="M136.471,14.319V2.911h2.227v11.407H136.471z"/>
			<path class="st0" d="M144.498,14.415c-1.73,0-3.044-0.369-4.165-1.506l1.441-1.442c0.722,0.721,1.698,0.961,2.74,0.961
				c1.329,0,2.034-0.513,2.034-1.426c0-0.385-0.111-0.705-0.353-0.945c-0.224-0.208-0.448-0.305-1.025-0.385l-1.361-0.208
				c-1.01-0.145-1.698-0.449-2.211-0.945c-0.545-0.529-0.817-1.282-0.817-2.243c0-2.035,1.506-3.46,3.974-3.46
				c1.57,0,2.708,0.384,3.685,1.33l-1.409,1.394c-0.705-0.689-1.587-0.785-2.34-0.785c-1.186,0-1.746,0.657-1.746,1.442
				c0,0.305,0.08,0.593,0.32,0.817c0.225,0.208,0.561,0.368,1.041,0.432l1.362,0.208c1.041,0.144,1.683,0.417,2.179,0.897
				c0.609,0.561,0.882,1.377,0.882,2.403C148.729,13.165,146.902,14.415,144.498,14.415z"/>
			<path class="st0" d="M154.658,14.415c-1.314,0-2.275-0.433-3.061-1.202c-1.138-1.138-1.153-2.419-1.153-4.598
				c0-2.179,0.016-3.461,1.153-4.598c0.785-0.769,1.746-1.202,3.061-1.202c2.131,0,3.765,1.217,4.182,3.604h-2.275
				c-0.225-0.929-0.801-1.618-1.906-1.618c-0.609,0-1.105,0.225-1.426,0.593c-0.417,0.481-0.562,1.042-0.562,3.221
				c0,2.179,0.145,2.74,0.562,3.22c0.32,0.369,0.816,0.593,1.426,0.593c1.105,0,1.698-0.689,1.923-1.618h2.259
				C158.423,13.197,156.773,14.415,154.658,14.415z"/>
			<path class="st0" d="M167.478,13.213c-0.769,0.769-1.73,1.202-3.044,1.202c-1.314,0-2.291-0.433-3.061-1.202
				c-1.138-1.138-1.153-2.419-1.153-4.598c0-2.179,0.016-3.461,1.153-4.598c0.77-0.769,1.746-1.202,3.061-1.202
				c1.313,0,2.275,0.433,3.044,1.202c1.138,1.137,1.17,2.419,1.17,4.598C168.648,10.794,168.615,12.075,167.478,13.213z
				 M165.86,5.41c-0.32-0.368-0.817-0.609-1.426-0.609c-0.609,0-1.105,0.241-1.442,0.609c-0.416,0.481-0.545,1.025-0.545,3.205
				c0,2.179,0.129,2.708,0.545,3.188c0.337,0.369,0.833,0.625,1.442,0.625c0.608,0,1.105-0.256,1.426-0.625
				c0.417-0.48,0.561-1.009,0.561-3.188C166.42,6.436,166.277,5.891,165.86,5.41z"/>
			<path class="st0" d="M174.913,14.319h-1.666l-3.766-11.407h2.308l2.291,7.434l2.291-7.434h2.323L174.913,14.319z"/>
			<path class="st0" d="M180.074,14.319V2.911h7.514v1.986h-5.287v2.676h4.502V9.56h-4.502v2.771h5.287v1.987H180.074z"/>
			<path class="st0" d="M195.825,14.319l-2.227-4.55h-1.603v4.55h-2.227V2.911h4.47c2.323,0,3.701,1.586,3.701,3.493
				c0,1.602-0.978,2.595-2.083,2.996l2.548,4.918H195.825z M194.095,4.898h-2.099V7.91h2.099c0.978,0,1.618-0.625,1.618-1.506
				C195.713,5.523,195.072,4.898,194.095,4.898z"/>
			<path class="st0" d="M132.557,33.114l-2.405-4.914h-1.729v4.914h-2.405v-12.32h4.827c2.509,0,3.997,1.713,3.997,3.772
				c0,1.73-1.056,2.803-2.249,3.236l2.751,5.312H132.557z M130.689,22.939h-2.267v3.253h2.267c1.056,0,1.747-0.675,1.747-1.626
				S131.744,22.939,130.689,22.939z"/>
			<path class="st0" d="M144.343,33.114l-0.727-2.18h-4.378l-0.744,2.18h-2.509l4.481-12.32h1.886l4.499,12.32H144.343z
				 M141.47,24.427l-1.557,4.482h3.062L141.47,24.427z"/>
			<path class="st0" d="M154.917,33.114l-2.405-4.914h-1.729v4.914h-2.405v-12.32h4.827c2.509,0,3.997,1.713,3.997,3.772
				c0,1.73-1.056,2.803-2.249,3.236l2.751,5.312H154.917z M153.049,22.939h-2.267v3.253h2.267c1.056,0,1.747-0.675,1.747-1.626
				S154.105,22.939,153.049,22.939z"/>
			<path class="st0" d="M159.696,33.114v-12.32h8.115v2.146h-5.71v2.89h4.862v2.146h-4.862v2.994h5.71v2.146H159.696z"/>
			<path class="st0" d="M178.663,33.114h-1.8l-4.066-12.32h2.492l2.474,8.029l2.475-8.029h2.509L178.663,33.114z"/>
			<path class="st0" d="M190.553,33.114l-0.727-2.18h-4.378l-0.744,2.18h-2.509l4.481-12.32h1.886l4.499,12.32H190.553z
				 M187.68,24.427l-1.557,4.482h3.062L187.68,24.427z"/>
			<path class="st0" d="M194.586,33.114v-12.32h2.405v10.175h5.589v2.146H194.586z"/>
			<path class="st0" d="M208.276,33.218c-2.526,0-4.533-1.713-4.533-4.326v-8.098h2.405v8.012c0,1.419,0.83,2.267,2.128,2.267
				s2.146-0.848,2.146-2.267v-8.012h2.388v8.098C212.809,31.504,210.802,33.218,208.276,33.218z"/>
			<path class="st0" d="M215.493,33.114v-12.32h8.115v2.146h-5.71v2.89h4.862v2.146h-4.862v2.994h5.71v2.146H215.493z"/>
		</g>
		<g>
			<g>
				<g>
					<path class="st0" d="M50.603,21.037h3.275V2.331c-0.295,0.217-0.63,0.433-1.003,0.649l-3.364,1.918l-0.236-0.384
						c1.298-0.727,2.479-1.425,3.541-2.095c1.062-0.669,2.066-1.475,3.01-2.419h0.59v21.037h3.275v0.413h-9.088V21.037z"/>
					<path class="st0" d="M65.474,10.475c0.157-0.078,0.314-0.158,0.472-0.236c0.157-0.078,0.339-0.157,0.546-0.236
						c0.207-0.078,0.452-0.162,0.738-0.251c0.285-0.088,0.624-0.182,1.018-0.28c0.865-0.236,1.583-0.531,2.154-0.885
						c0.571-0.354,1.018-0.767,1.343-1.239c0.324-0.472,0.551-0.993,0.678-1.563c0.128-0.571,0.192-1.19,0.192-1.859
						c0-0.472-0.05-0.919-0.147-1.343c-0.099-0.422-0.266-0.796-0.502-1.121c-0.236-0.325-0.546-0.58-0.93-0.768
						c-0.384-0.187-0.87-0.28-1.46-0.28c-0.649,0-1.18,0.084-1.593,0.251c-0.413,0.167-0.733,0.364-0.959,0.59
						c-0.226,0.227-0.379,0.453-0.457,0.679c-0.079,0.227-0.118,0.409-0.118,0.546c0,0.531,0.083,0.935,0.251,1.21
						c0.167,0.276,0.251,0.522,0.251,0.738c0,0.354-0.123,0.6-0.369,0.738c-0.246,0.138-0.536,0.206-0.87,0.206
						c-0.866,0-1.299-0.423-1.299-1.269c0-0.255,0.083-0.614,0.251-1.077c0.167-0.462,0.458-0.919,0.871-1.372
						C65.946,1.2,66.502,0.811,67.2,0.487C67.898,0.162,68.769,0,69.812,0c0.944,0,1.765,0.147,2.464,0.443
						c0.698,0.295,1.273,0.664,1.725,1.106c0.452,0.443,0.787,0.924,1.003,1.446c0.216,0.521,0.324,1.018,0.324,1.49
						c0,0.826-0.241,1.534-0.722,2.125c-0.483,0.59-1.043,1.082-1.682,1.475C72.285,8.478,71.641,8.783,70.992,9
						c-0.649,0.217-1.141,0.354-1.475,0.413v0.059c0.845,0.039,1.662,0.206,2.449,0.502c0.787,0.295,1.485,0.703,2.095,1.225
						c0.61,0.521,1.092,1.136,1.446,1.844c0.354,0.708,0.531,1.505,0.531,2.39c0,0.787-0.172,1.563-0.517,2.331
						c-0.344,0.767-0.826,1.455-1.446,2.065c-0.62,0.61-1.368,1.102-2.242,1.476c-0.876,0.373-1.845,0.561-2.907,0.561
						c-0.984,0-1.82-0.133-2.508-0.398c-0.689-0.265-1.259-0.62-1.711-1.062c-0.453-0.443-0.807-0.934-1.062-1.475
						c-0.256-0.541-0.433-1.097-0.531-1.667l0.413-0.089c0.039,0.276,0.137,0.649,0.295,1.121c0.157,0.472,0.428,0.944,0.811,1.416
						c0.384,0.472,0.915,0.881,1.593,1.225c0.678,0.345,1.559,0.517,2.641,0.517c0.609,0,1.18-0.088,1.711-0.265
						c0.531-0.177,0.988-0.502,1.372-0.974c0.384-0.472,0.684-1.116,0.9-1.933c0.217-0.816,0.324-1.863,0.324-3.142
						c0-0.649-0.049-1.293-0.147-1.933c-0.099-0.639-0.295-1.21-0.591-1.711c-0.295-0.502-0.698-0.91-1.209-1.225
						c-0.512-0.315-1.18-0.472-2.007-0.472c-0.689,0-1.318,0.103-1.888,0.31c-0.571,0.206-1.102,0.487-1.594,0.84L65.474,10.475z"/>
					<path class="st0" d="M80.816,10.475c0.158-0.078,0.315-0.158,0.472-0.236c0.158-0.078,0.339-0.157,0.546-0.236
						c0.206-0.078,0.452-0.162,0.738-0.251c0.284-0.088,0.624-0.182,1.017-0.28c0.866-0.236,1.584-0.531,2.155-0.885
						c0.57-0.354,1.018-0.767,1.343-1.239c0.324-0.472,0.55-0.993,0.678-1.563c0.128-0.571,0.192-1.19,0.192-1.859
						c0-0.472-0.049-0.919-0.148-1.343c-0.098-0.422-0.265-0.796-0.501-1.121c-0.236-0.325-0.546-0.58-0.93-0.768
						c-0.384-0.187-0.87-0.28-1.461-0.28c-0.649,0-1.18,0.084-1.592,0.251c-0.414,0.167-0.733,0.364-0.96,0.59
						c-0.226,0.227-0.379,0.453-0.457,0.679c-0.079,0.227-0.118,0.409-0.118,0.546c0,0.531,0.083,0.935,0.25,1.21
						c0.167,0.276,0.251,0.522,0.251,0.738c0,0.354-0.124,0.6-0.369,0.738c-0.246,0.138-0.536,0.206-0.87,0.206
						c-0.866,0-1.298-0.423-1.298-1.269c0-0.255,0.083-0.614,0.25-1.077c0.167-0.462,0.458-0.919,0.871-1.372
						c0.413-0.452,0.968-0.841,1.667-1.166C83.241,0.162,84.111,0,85.154,0c0.945,0,1.766,0.147,2.464,0.443
						c0.698,0.295,1.273,0.664,1.725,1.106c0.453,0.443,0.787,0.924,1.003,1.446c0.217,0.521,0.325,1.018,0.325,1.49
						c0,0.826-0.241,1.534-0.723,2.125c-0.482,0.59-1.043,1.082-1.682,1.475C87.627,8.478,86.984,8.783,86.334,9
						c-0.65,0.217-1.141,0.354-1.475,0.413v0.059c0.845,0.039,1.662,0.206,2.449,0.502c0.786,0.295,1.485,0.703,2.095,1.225
						c0.61,0.521,1.091,1.136,1.446,1.844c0.354,0.708,0.531,1.505,0.531,2.39c0,0.787-0.172,1.563-0.516,2.331
						c-0.345,0.767-0.827,1.455-1.446,2.065c-0.62,0.61-1.368,1.102-2.243,1.476c-0.876,0.373-1.844,0.561-2.907,0.561
						c-0.984,0-1.819-0.133-2.507-0.398c-0.689-0.265-1.26-0.62-1.712-1.062c-0.452-0.443-0.806-0.934-1.062-1.475
						c-0.257-0.541-0.433-1.097-0.531-1.667l0.413-0.089c0.039,0.276,0.137,0.649,0.295,1.121c0.157,0.472,0.428,0.944,0.812,1.416
						c0.384,0.472,0.914,0.881,1.593,1.225c0.678,0.345,1.559,0.517,2.641,0.517c0.609,0,1.18-0.088,1.711-0.265
						c0.531-0.177,0.988-0.502,1.373-0.974c0.383-0.472,0.683-1.116,0.9-1.933c0.216-0.816,0.324-1.863,0.324-3.142
						c0-0.649-0.05-1.293-0.148-1.933c-0.098-0.639-0.295-1.21-0.59-1.711c-0.295-0.502-0.698-0.91-1.21-1.225
						c-0.512-0.315-1.18-0.472-2.007-0.472c-0.689,0-1.318,0.103-1.888,0.31c-0.571,0.206-1.102,0.487-1.593,0.84L80.816,10.475z"/>
					<path class="st0" d="M93.74,10.917c0-1.18,0.093-2.414,0.28-3.703c0.187-1.288,0.536-2.469,1.047-3.541
						c0.511-1.072,1.214-1.952,2.11-2.641C98.073,0.344,99.228,0,100.644,0c1.417,0,2.572,0.344,3.467,1.032
						c0.895,0.689,1.598,1.569,2.11,2.641c0.512,1.072,0.861,2.252,1.047,3.541c0.187,1.288,0.28,2.522,0.28,3.703
						c0,1.2-0.094,2.444-0.28,3.733c-0.187,1.288-0.536,2.469-1.047,3.541c-0.512,1.072-1.215,1.952-2.11,2.641
						c-0.895,0.688-2.051,1.033-3.467,1.033c-1.416,0-2.571-0.345-3.467-1.033c-0.895-0.688-1.599-1.568-2.11-2.641
						c-0.511-1.072-0.861-2.252-1.047-3.541C93.833,13.362,93.74,12.117,93.74,10.917z M96.691,10.917
						c0,1.829,0.054,3.408,0.162,4.736c0.108,1.328,0.305,2.419,0.59,3.275c0.285,0.855,0.684,1.49,1.195,1.903
						c0.511,0.413,1.18,0.62,2.006,0.62c0.827,0,1.495-0.206,2.007-0.62c0.512-0.413,0.91-1.047,1.195-1.903
						c0.284-0.856,0.481-1.948,0.59-3.275c0.108-1.328,0.163-2.907,0.163-4.736s-0.055-3.403-0.163-4.721
						c-0.109-1.318-0.305-2.404-0.59-3.26c-0.286-0.856-0.684-1.49-1.195-1.903c-0.512-0.413-1.18-0.62-2.007-0.62
						c-0.825,0-1.495,0.207-2.006,0.62c-0.512,0.413-0.91,1.047-1.195,1.903c-0.285,0.856-0.482,1.943-0.59,3.26
						C96.745,7.514,96.691,9.088,96.691,10.917z"/>
				</g>
			</g>
			<g>
				<g>
					<path class="st0" d="M1.994,29.564h0.733l1.891,5.218h-0.74L3.32,33.184H1.341L0.74,34.782H0L1.994,29.564z M2.36,30.421H2.345
						l-0.791,2.162h1.554L2.36,30.421z"/>
					<path class="st0" d="M4.811,29.564h0.755l1.363,4.265h0.015l1.451-4.265h0.726l-1.855,5.218H6.556L4.811,29.564z"/>
					<path class="st0" d="M10.311,29.564h3.665v0.601H11v1.612h2.587v0.601H11v1.803h3.049v0.601h-3.738V29.564z"/>
					<path class="st0" d="M15.379,29.564h0.696l2.763,4.118h0.015v-4.118h0.645v5.218h-0.689l-2.77-4.111h-0.015v4.111h-0.645
						V29.564z"/>
					<path class="st0" d="M25.101,33.067c0,1.187-0.762,1.846-1.986,1.846c-1.224,0-1.986-0.659-1.986-1.846v-3.503h0.689v3.386
						c0,0.909,0.396,1.363,1.297,1.363s1.297-0.454,1.297-1.363v-3.386h0.689V33.067z"/>
					<path class="st0" d="M26.732,29.564h3.665v0.601h-2.976v1.612h2.587v0.601h-2.587v1.803h3.049v0.601h-3.738V29.564z"/>
					<path class="st0" d="M36.888,29.431c1.627,0,2.624,1.114,2.624,2.741s-0.997,2.741-2.624,2.741
						c-1.627,0-2.624-1.114-2.624-2.741S35.261,29.431,36.888,29.431z M36.888,34.357c1.29,0,1.876-1.034,1.876-2.184
						c0-1.151-0.587-2.184-1.876-2.184c-1.29,0-1.876,1.033-1.876,2.184C35.012,33.323,35.598,34.357,36.888,34.357z"/>
					<path class="st0" d="M40.982,29.564h3.342v0.601h-2.653v1.554h2.462v0.601h-2.462v2.463h-0.689V29.564z"/>
					<path class="st0" d="M49.716,30.164h-1.569v-0.601h3.826v0.601h-1.569v4.617h-0.688V30.164z"/>
					<path class="st0" d="M53.207,29.564h0.688v2.213h2.873v-2.213h0.689v5.218h-0.689v-2.404h-2.873v2.404h-0.688V29.564z"/>
					<path class="st0" d="M59.089,29.564h3.665v0.601h-2.975v1.612h2.587v0.601h-2.587v1.803h3.049v0.601h-3.738V29.564z"/>
					<path class="st0" d="M68.322,29.564h0.732l1.891,5.218h-0.74l-0.557-1.598h-1.979l-0.601,1.598h-0.741L68.322,29.564z
						 M68.688,30.421h-0.015l-0.791,2.162h1.553L68.688,30.421z"/>
					<path class="st0" d="M72.143,29.564h0.909l1.597,4.236l1.598-4.236h0.909v5.218h-0.689v-4.2h-0.015l-1.524,4.2h-0.557
						l-1.525-4.2h-0.014v4.2h-0.689V29.564z"/>
					<path class="st0" d="M78.81,29.564h3.665v0.601h-2.976v1.612h2.588v0.601h-2.588v1.803h3.049v0.601H78.81V29.564z"/>
					<path class="st0" d="M83.877,29.564h2.36c0.821,0,1.679,0.315,1.679,1.502c0,0.667-0.301,1.312-1.21,1.459l1.436,2.257h-0.835
						L85.9,32.568h-1.333v2.214h-0.69V29.564z M84.567,31.967h1.561c0.646,0,1.099-0.205,1.099-0.901
						c0-0.689-0.453-0.901-1.099-0.901h-1.561V31.967z"/>
					<path class="st0" d="M89.436,29.564h0.69v5.218h-0.69V29.564z"/>
					<path class="st0" d="M95.946,31.176c-0.176-0.711-0.872-1.187-1.649-1.187c-1.29,0-1.876,1.033-1.876,2.184
						c0,1.151,0.586,2.184,1.876,2.184c0.901,0,1.583-0.623,1.707-1.546l0.726,0.088c-0.235,1.231-1.29,2.015-2.434,2.015
						c-1.627,0-2.624-1.114-2.624-2.741s0.996-2.741,2.624-2.741c1.121,0,2.052,0.542,2.367,1.613L95.946,31.176z"/>
					<path class="st0" d="M99.667,29.564h0.732l1.891,5.218h-0.74l-0.557-1.598h-1.979l-0.601,1.598h-0.74L99.667,29.564z
						 M100.033,30.421h-0.015l-0.792,2.162h1.554L100.033,30.421z"/>
					<path class="st0" d="M106.75,31.095c-0.037-0.769-0.623-1.106-1.348-1.106c-0.491,0-1.166,0.168-1.166,0.784
						c0,1.378,3.313,0.345,3.313,2.521c0,1.107-1.019,1.62-2.009,1.62c-1.238,0-2.22-0.491-2.308-1.825l0.747-0.066
						c0.037,0.946,0.631,1.334,1.532,1.334c0.659,0,1.29-0.301,1.29-1.041c0-1.437-3.313-0.462-3.313-2.397
						c0-1.011,0.967-1.488,1.868-1.488c1.078,0,1.958,0.491,2.104,1.627L106.75,31.095z"/>
				</g>
			</g>
		</g>
		<line class="st1" x1="116.149" y1="0.481" x2="116.149" y2="34.433"/>
	</g>
</g>
</svg>
