<?xml version="1.0" encoding="utf-8"?>
<!-- Generator: Adobe Illustrator 17.1.0, SVG Export Plug-In . SVG Version: 6.00 Build 0)  -->
<!DOCTYPE svg PUBLIC "-//W3C//DTD SVG 1.1//EN" "http://www.w3.org/Graphics/SVG/1.1/DTD/svg11.dtd">
<svg version="1.1" id="Layer_1" xmlns="http://www.w3.org/2000/svg" xmlns:xlink="http://www.w3.org/1999/xlink" x="0px" y="0px"
	 viewBox="0 0 245 94" style="enable-background:new 0 0 245 94;" xml:space="preserve">
<style type="text/css">
	.st0{fill:#FFFFFF;}
	.st1{font-family:'DINPro-Bold';}
	.st2{font-size:16.0251;}
	.st3{font-size:17.3071;}
	.st4{fill:#FFFFFF;stroke:#FFFFFF;stroke-width:0.4538;stroke-miterlimit:10;}
</style>
<g>
	<g>
		<text transform="matrix(1 0 0 1 135.3247 39.9328)"><tspan x="0" y="0" class="st0 st1 st2">DISCOVER</tspan><tspan x="0" y="18.8" class="st0 st1 st3">RARE VALUE</tspan></text>
		<g>
			<g>
				<g>
					<path class="st0" d="M61.3,46.7h3.3V27.9c-0.3,0.2-0.6,0.4-1,0.6l-3.4,1.9L60,30.1c1.3-0.7,2.5-1.4,3.5-2.1
						c1.1-0.7,2.1-1.5,3-2.4h0.6v21h3.3v0.4h-9.1V46.7z"/>
					<path class="st0" d="M76.2,36.1c0.2-0.1,0.3-0.2,0.5-0.2c0.2-0.1,0.3-0.2,0.5-0.2c0.2-0.1,0.5-0.2,0.7-0.3
						c0.3-0.1,0.6-0.2,1-0.3c0.9-0.2,1.6-0.5,2.2-0.9c0.6-0.4,1-0.8,1.3-1.2c0.3-0.5,0.6-1,0.7-1.6c0.1-0.6,0.2-1.2,0.2-1.9
						c0-0.5,0-0.9-0.1-1.3c-0.1-0.4-0.3-0.8-0.5-1.1c-0.2-0.3-0.5-0.6-0.9-0.8c-0.4-0.2-0.9-0.3-1.5-0.3c-0.6,0-1.2,0.1-1.6,0.3
						c-0.4,0.2-0.7,0.4-1,0.6c-0.2,0.2-0.4,0.5-0.5,0.7c-0.1,0.2-0.1,0.4-0.1,0.5c0,0.5,0.1,0.9,0.3,1.2c0.2,0.3,0.3,0.5,0.3,0.7
						c0,0.4-0.1,0.6-0.4,0.7c-0.2,0.1-0.5,0.2-0.9,0.2c-0.9,0-1.3-0.4-1.3-1.3c0-0.3,0.1-0.6,0.3-1.1c0.2-0.5,0.5-0.9,0.9-1.4
						c0.4-0.5,1-0.8,1.7-1.2c0.7-0.3,1.6-0.5,2.6-0.5c0.9,0,1.8,0.1,2.5,0.4c0.7,0.3,1.3,0.7,1.7,1.1c0.5,0.4,0.8,0.9,1,1.4
						c0.2,0.5,0.3,1,0.3,1.5c0,0.8-0.2,1.5-0.7,2.1c-0.5,0.6-1,1.1-1.7,1.5c-0.6,0.4-1.3,0.7-1.9,0.9c-0.6,0.2-1.1,0.4-1.5,0.4v0.1
						c0.8,0,1.7,0.2,2.4,0.5c0.8,0.3,1.5,0.7,2.1,1.2c0.6,0.5,1.1,1.1,1.4,1.8c0.4,0.7,0.5,1.5,0.5,2.4c0,0.8-0.2,1.6-0.5,2.3
						c-0.3,0.8-0.8,1.5-1.4,2.1c-0.6,0.6-1.4,1.1-2.2,1.5c-0.9,0.4-1.8,0.6-2.9,0.6c-1,0-1.8-0.1-2.5-0.4c-0.7-0.3-1.3-0.6-1.7-1.1
						c-0.5-0.4-0.8-0.9-1.1-1.5c-0.3-0.5-0.4-1.1-0.5-1.7l0.4-0.1c0,0.3,0.1,0.6,0.3,1.1c0.2,0.5,0.4,0.9,0.8,1.4
						c0.4,0.5,0.9,0.9,1.6,1.2c0.7,0.3,1.6,0.5,2.6,0.5c0.6,0,1.2-0.1,1.7-0.3c0.5-0.2,1-0.5,1.4-1c0.4-0.5,0.7-1.1,0.9-1.9
						c0.2-0.8,0.3-1.9,0.3-3.1c0-0.6,0-1.3-0.1-1.9c-0.1-0.6-0.3-1.2-0.6-1.7c-0.3-0.5-0.7-0.9-1.2-1.2c-0.5-0.3-1.2-0.5-2-0.5
						c-0.7,0-1.3,0.1-1.9,0.3c-0.6,0.2-1.1,0.5-1.6,0.8L76.2,36.1z"/>
					<path class="st0" d="M91.6,36.1c0.2-0.1,0.3-0.2,0.5-0.2c0.2-0.1,0.3-0.2,0.5-0.2c0.2-0.1,0.5-0.2,0.7-0.3
						c0.3-0.1,0.6-0.2,1-0.3c0.9-0.2,1.6-0.5,2.2-0.9c0.6-0.4,1-0.8,1.3-1.2c0.3-0.5,0.5-1,0.7-1.6c0.1-0.6,0.2-1.2,0.2-1.9
						c0-0.5,0-0.9-0.1-1.3c-0.1-0.4-0.3-0.8-0.5-1.1c-0.2-0.3-0.5-0.6-0.9-0.8c-0.4-0.2-0.9-0.3-1.5-0.3c-0.6,0-1.2,0.1-1.6,0.3
						c-0.4,0.2-0.7,0.4-1,0.6c-0.2,0.2-0.4,0.5-0.5,0.7c-0.1,0.2-0.1,0.4-0.1,0.5c0,0.5,0.1,0.9,0.3,1.2C93,29.6,93,29.8,93,30
						c0,0.4-0.1,0.6-0.4,0.7c-0.2,0.1-0.5,0.2-0.9,0.2c-0.9,0-1.3-0.4-1.3-1.3c0-0.3,0.1-0.6,0.3-1.1c0.2-0.5,0.5-0.9,0.9-1.4
						c0.4-0.5,1-0.8,1.7-1.2c0.7-0.3,1.6-0.5,2.6-0.5c0.9,0,1.8,0.1,2.5,0.4c0.7,0.3,1.3,0.7,1.7,1.1c0.5,0.4,0.8,0.9,1,1.4
						c0.2,0.5,0.3,1,0.3,1.5c0,0.8-0.2,1.5-0.7,2.1c-0.5,0.6-1,1.1-1.7,1.5c-0.6,0.4-1.3,0.7-1.9,0.9c-0.6,0.2-1.1,0.4-1.5,0.4v0.1
						c0.8,0,1.7,0.2,2.4,0.5c0.8,0.3,1.5,0.7,2.1,1.2c0.6,0.5,1.1,1.1,1.4,1.8c0.4,0.7,0.5,1.5,0.5,2.4c0,0.8-0.2,1.6-0.5,2.3
						c-0.3,0.8-0.8,1.5-1.4,2.1c-0.6,0.6-1.4,1.1-2.2,1.5c-0.9,0.4-1.8,0.6-2.9,0.6c-1,0-1.8-0.1-2.5-0.4c-0.7-0.3-1.3-0.6-1.7-1.1
						c-0.5-0.4-0.8-0.9-1.1-1.5c-0.3-0.5-0.4-1.1-0.5-1.7l0.4-0.1c0,0.3,0.1,0.6,0.3,1.1c0.2,0.5,0.4,0.9,0.8,1.4
						c0.4,0.5,0.9,0.9,1.6,1.2c0.7,0.3,1.6,0.5,2.6,0.5c0.6,0,1.2-0.1,1.7-0.3c0.5-0.2,1-0.5,1.4-1c0.4-0.5,0.7-1.1,0.9-1.9
						c0.2-0.8,0.3-1.9,0.3-3.1c0-0.6,0-1.3-0.1-1.9c-0.1-0.6-0.3-1.2-0.6-1.7c-0.3-0.5-0.7-0.9-1.2-1.2c-0.5-0.3-1.2-0.5-2-0.5
						c-0.7,0-1.3,0.1-1.9,0.3c-0.6,0.2-1.1,0.5-1.6,0.8L91.6,36.1z"/>
					<path class="st0" d="M104.5,36.5c0-1.2,0.1-2.4,0.3-3.7c0.2-1.3,0.5-2.5,1-3.5c0.5-1.1,1.2-2,2.1-2.6c0.9-0.7,2.1-1,3.5-1
						c1.4,0,2.6,0.3,3.5,1c0.9,0.7,1.6,1.6,2.1,2.6c0.5,1.1,0.9,2.3,1,3.5c0.2,1.3,0.3,2.5,0.3,3.7c0,1.2-0.1,2.4-0.3,3.7
						c-0.2,1.3-0.5,2.5-1,3.5c-0.5,1.1-1.2,2-2.1,2.6c-0.9,0.7-2.1,1-3.5,1c-1.4,0-2.6-0.3-3.5-1c-0.9-0.7-1.6-1.6-2.1-2.6
						c-0.5-1.1-0.9-2.3-1-3.5C104.6,39,104.5,37.7,104.5,36.5z M107.4,36.5c0,1.8,0.1,3.4,0.2,4.7c0.1,1.3,0.3,2.4,0.6,3.3
						c0.3,0.9,0.7,1.5,1.2,1.9c0.5,0.4,1.2,0.6,2,0.6c0.8,0,1.5-0.2,2-0.6c0.5-0.4,0.9-1,1.2-1.9c0.3-0.9,0.5-1.9,0.6-3.3
						c0.1-1.3,0.2-2.9,0.2-4.7s-0.1-3.4-0.2-4.7c-0.1-1.3-0.3-2.4-0.6-3.3c-0.3-0.9-0.7-1.5-1.2-1.9c-0.5-0.4-1.2-0.6-2-0.6
						c-0.8,0-1.5,0.2-2,0.6c-0.5,0.4-0.9,1-1.2,1.9c-0.3,0.9-0.5,1.9-0.6,3.3C107.5,33.1,107.4,34.7,107.4,36.5z"/>
				</g>
			</g>
			<g>
				<g>
					<path class="st0" d="M12.7,55.2h0.7l1.9,5.2h-0.7l-0.6-1.6h-2l-0.6,1.6h-0.7L12.7,55.2z M13.1,56L13.1,56l-0.8,2.2h1.6L13.1,56
						z"/>
					<path class="st0" d="M15.6,55.2h0.8l1.4,4.3h0l1.5-4.3h0.7L18,60.4h-0.7L15.6,55.2z"/>
					<path class="st0" d="M21.1,55.2h3.7v0.6h-3v1.6h2.6V58h-2.6v1.8h3v0.6h-3.7V55.2z"/>
					<path class="st0" d="M26.1,55.2h0.7l2.8,4.1h0v-4.1h0.6v5.2h-0.7l-2.8-4.1h0v4.1h-0.6V55.2z"/>
					<path class="st0" d="M35.8,58.7c0,1.2-0.8,1.8-2,1.8c-1.2,0-2-0.7-2-1.8v-3.5h0.7v3.4c0,0.9,0.4,1.4,1.3,1.4s1.3-0.5,1.3-1.4
						v-3.4h0.7V58.7z"/>
					<path class="st0" d="M37.5,55.2h3.7v0.6h-3v1.6h2.6V58h-2.6v1.8h3v0.6h-3.7V55.2z"/>
					<path class="st0" d="M47.6,55c1.6,0,2.6,1.1,2.6,2.7c0,1.6-1,2.7-2.6,2.7c-1.6,0-2.6-1.1-2.6-2.7C45,56.2,46,55,47.6,55z
						 M47.6,60c1.3,0,1.9-1,1.9-2.2c0-1.2-0.6-2.2-1.9-2.2c-1.3,0-1.9,1-1.9,2.2C45.8,58.9,46.3,60,47.6,60z"/>
					<path class="st0" d="M51.7,55.2h3.3v0.6h-2.7v1.6h2.5v0.6h-2.5v2.5h-0.7V55.2z"/>
					<path class="st0" d="M60.5,55.8h-1.6v-0.6h3.8v0.6h-1.6v4.6h-0.7V55.8z"/>
					<path class="st0" d="M64,55.2h0.7v2.2h2.9v-2.2h0.7v5.2h-0.7V58h-2.9v2.4H64V55.2z"/>
					<path class="st0" d="M69.8,55.2h3.7v0.6h-3v1.6h2.6V58h-2.6v1.8h3v0.6h-3.7V55.2z"/>
					<path class="st0" d="M79.1,55.2h0.7l1.9,5.2h-0.7l-0.6-1.6h-2l-0.6,1.6h-0.7L79.1,55.2z M79.4,56L79.4,56l-0.8,2.2h1.6L79.4,56
						z"/>
					<path class="st0" d="M82.9,55.2h0.9l1.6,4.2l1.6-4.2h0.9v5.2h-0.7v-4.2h0l-1.5,4.2h-0.6l-1.5-4.2h0v4.2h-0.7V55.2z"/>
					<path class="st0" d="M89.6,55.2h3.7v0.6h-3v1.6h2.6V58h-2.6v1.8h3v0.6h-3.7V55.2z"/>
					<path class="st0" d="M94.6,55.2H97c0.8,0,1.7,0.3,1.7,1.5c0,0.7-0.3,1.3-1.2,1.5l1.4,2.3h-0.8l-1.4-2.2h-1.3v2.2h-0.7V55.2z
						 M95.3,57.6h1.6c0.6,0,1.1-0.2,1.1-0.9c0-0.7-0.5-0.9-1.1-0.9h-1.6V57.6z"/>
					<path class="st0" d="M100.2,55.2h0.7v5.2h-0.7V55.2z"/>
					<path class="st0" d="M106.7,56.8c-0.2-0.7-0.9-1.2-1.6-1.2c-1.3,0-1.9,1-1.9,2.2c0,1.2,0.6,2.2,1.9,2.2c0.9,0,1.6-0.6,1.7-1.5
						l0.7,0.1c-0.2,1.2-1.3,2-2.4,2c-1.6,0-2.6-1.1-2.6-2.7c0-1.6,1-2.7,2.6-2.7c1.1,0,2.1,0.5,2.4,1.6L106.7,56.8z"/>
					<path class="st0" d="M110.4,55.2h0.7l1.9,5.2h-0.7l-0.6-1.6h-2l-0.6,1.6h-0.7L110.4,55.2z M110.8,56L110.8,56l-0.8,2.2h1.6
						L110.8,56z"/>
					<path class="st0" d="M117.5,56.7c0-0.8-0.6-1.1-1.3-1.1c-0.5,0-1.2,0.2-1.2,0.8c0,1.4,3.3,0.3,3.3,2.5c0,1.1-1,1.6-2,1.6
						c-1.2,0-2.2-0.5-2.3-1.8l0.7-0.1c0,0.9,0.6,1.3,1.5,1.3c0.7,0,1.3-0.3,1.3-1c0-1.4-3.3-0.5-3.3-2.4c0-1,1-1.5,1.9-1.5
						c1.1,0,2,0.5,2.1,1.6L117.5,56.7z"/>
				</g>
			</g>
		</g>
		<line class="st4" x1="126.9" y1="26.1" x2="126.9" y2="60"/>
	</g>
</g>
</svg>
