<?xml version="1.0" encoding="utf-8"?>
<!-- Generator: Adobe Illustrator 17.1.0, SVG Export Plug-In . SVG Version: 6.00 Build 0)  -->
<!DOCTYPE svg PUBLIC "-//W3C//DTD SVG 1.1//EN" "http://www.w3.org/Graphics/SVG/1.1/DTD/svg11.dtd">
<svg version="1.1" id="Layer_1" xmlns="http://www.w3.org/2000/svg" xmlns:xlink="http://www.w3.org/1999/xlink" x="0px" y="0px"
	 viewBox="0 0 1280 800" style="enable-background:new 0 0 1280 800;" xml:space="preserve">
<style type="text/css">
	.st0{opacity:0.1;}
	.st1{clip-path:url(#SVGID_2_);fill-rule:evenodd;clip-rule:evenodd;fill:#1E428A;}
	.st2{clip-path:url(#SVGID_2_);fill:none;}
	.st3{fill:#FFFFFF;}
	.st4{font-family:'DINPro-Bold';}
	.st5{font-size:16.0251;}
	.st6{font-size:17.3071;}
	.st7{fill:none;}
</style>
<g>
	<g class="st0">
		<defs>
			<polygon id="SVGID_1_" class="st0" points="920,404.8 371,403.9 461,306 782.5,306 			"/>
		</defs>
		<clipPath id="SVGID_2_">
			<use xlink:href="#SVGID_1_"  style="overflow:visible;"/>
		</clipPath>
		<rect x="-74" y="74" class="st1" width="1343" height="849"/>
		<rect x="-144" y="150" class="st2" width="1488" height="830"/>
	</g>
	<g>
		<g>
			<text transform="matrix(1 0 0 1 634.3245 350.7943)"><tspan x="0" y="0" class="st3 st4 st5">DISCOVER</tspan><tspan x="0" y="18.8" class="st3 st4 st6">RARE VALUE</tspan></text>
			<g>
				<g>
					<g>
						<path class="st3" d="M560.3,357.5h3.3v-18.7c-0.3,0.2-0.6,0.4-1,0.6l-3.4,1.9L559,341c1.3-0.7,2.5-1.4,3.5-2.1
							c1.1-0.7,2.1-1.5,3-2.4h0.6v21h3.3v0.4h-9.1V357.5z"/>
						<path class="st3" d="M575.2,347c0.2-0.1,0.3-0.2,0.5-0.2c0.2-0.1,0.3-0.2,0.5-0.2c0.2-0.1,0.5-0.2,0.7-0.3
							c0.3-0.1,0.6-0.2,1-0.3c0.9-0.2,1.6-0.5,2.2-0.9c0.6-0.4,1-0.8,1.3-1.2c0.3-0.5,0.6-1,0.7-1.6c0.1-0.6,0.2-1.2,0.2-1.9
							c0-0.5,0-0.9-0.1-1.3c-0.1-0.4-0.3-0.8-0.5-1.1c-0.2-0.3-0.5-0.6-0.9-0.8c-0.4-0.2-0.9-0.3-1.5-0.3c-0.6,0-1.2,0.1-1.6,0.3
							c-0.4,0.2-0.7,0.4-1,0.6c-0.2,0.2-0.4,0.5-0.5,0.7c-0.1,0.2-0.1,0.4-0.1,0.5c0,0.5,0.1,0.9,0.3,1.2c0.2,0.3,0.3,0.5,0.3,0.7
							c0,0.4-0.1,0.6-0.4,0.7c-0.2,0.1-0.5,0.2-0.9,0.2c-0.9,0-1.3-0.4-1.3-1.3c0-0.3,0.1-0.6,0.3-1.1c0.2-0.5,0.5-0.9,0.9-1.4
							c0.4-0.5,1-0.8,1.7-1.2c0.7-0.3,1.6-0.5,2.6-0.5c0.9,0,1.8,0.1,2.5,0.4c0.7,0.3,1.3,0.7,1.7,1.1c0.5,0.4,0.8,0.9,1,1.4
							c0.2,0.5,0.3,1,0.3,1.5c0,0.8-0.2,1.5-0.7,2.1c-0.5,0.6-1,1.1-1.7,1.5c-0.6,0.4-1.3,0.7-1.9,0.9c-0.6,0.2-1.1,0.4-1.5,0.4v0.1
							c0.8,0,1.7,0.2,2.4,0.5c0.8,0.3,1.5,0.7,2.1,1.2c0.6,0.5,1.1,1.1,1.4,1.8c0.4,0.7,0.5,1.5,0.5,2.4c0,0.8-0.2,1.6-0.5,2.3
							c-0.3,0.8-0.8,1.5-1.4,2.1c-0.6,0.6-1.4,1.1-2.2,1.5c-0.9,0.4-1.8,0.6-2.9,0.6c-1,0-1.8-0.1-2.5-0.4c-0.7-0.3-1.3-0.6-1.7-1.1
							c-0.5-0.4-0.8-0.9-1.1-1.5c-0.3-0.5-0.4-1.1-0.5-1.7l0.4-0.1c0,0.3,0.1,0.6,0.3,1.1c0.2,0.5,0.4,0.9,0.8,1.4
							c0.4,0.5,0.9,0.9,1.6,1.2c0.7,0.3,1.6,0.5,2.6,0.5c0.6,0,1.2-0.1,1.7-0.3c0.5-0.2,1-0.5,1.4-1c0.4-0.5,0.7-1.1,0.9-1.9
							c0.2-0.8,0.3-1.9,0.3-3.1c0-0.6,0-1.3-0.1-1.9c-0.1-0.6-0.3-1.2-0.6-1.7c-0.3-0.5-0.7-0.9-1.2-1.2c-0.5-0.3-1.2-0.5-2-0.5
							c-0.7,0-1.3,0.1-1.9,0.3c-0.6,0.2-1.1,0.5-1.6,0.8L575.2,347z"/>
						<path class="st3" d="M590.6,347c0.2-0.1,0.3-0.2,0.5-0.2c0.2-0.1,0.3-0.2,0.5-0.2c0.2-0.1,0.5-0.2,0.7-0.3
							c0.3-0.1,0.6-0.2,1-0.3c0.9-0.2,1.6-0.5,2.2-0.9c0.6-0.4,1-0.8,1.3-1.2c0.3-0.5,0.5-1,0.7-1.6c0.1-0.6,0.2-1.2,0.2-1.9
							c0-0.5,0-0.9-0.1-1.3c-0.1-0.4-0.3-0.8-0.5-1.1c-0.2-0.3-0.5-0.6-0.9-0.8c-0.4-0.2-0.9-0.3-1.5-0.3c-0.6,0-1.2,0.1-1.6,0.3
							c-0.4,0.2-0.7,0.4-1,0.6c-0.2,0.2-0.4,0.5-0.5,0.7c-0.1,0.2-0.1,0.4-0.1,0.5c0,0.5,0.1,0.9,0.3,1.2c0.2,0.3,0.3,0.5,0.3,0.7
							c0,0.4-0.1,0.6-0.4,0.7c-0.2,0.1-0.5,0.2-0.9,0.2c-0.9,0-1.3-0.4-1.3-1.3c0-0.3,0.1-0.6,0.3-1.1c0.2-0.5,0.5-0.9,0.9-1.4
							c0.4-0.5,1-0.8,1.7-1.2c0.7-0.3,1.6-0.5,2.6-0.5c0.9,0,1.8,0.1,2.5,0.4c0.7,0.3,1.3,0.7,1.7,1.1c0.5,0.4,0.8,0.9,1,1.4
							c0.2,0.5,0.3,1,0.3,1.5c0,0.8-0.2,1.5-0.7,2.1c-0.5,0.6-1,1.1-1.7,1.5c-0.6,0.4-1.3,0.7-1.9,0.9s-1.1,0.4-1.5,0.4v0.1
							c0.8,0,1.7,0.2,2.4,0.5c0.8,0.3,1.5,0.7,2.1,1.2c0.6,0.5,1.1,1.1,1.4,1.8c0.4,0.7,0.5,1.5,0.5,2.4c0,0.8-0.2,1.6-0.5,2.3
							c-0.3,0.8-0.8,1.5-1.4,2.1c-0.6,0.6-1.4,1.1-2.2,1.5c-0.9,0.4-1.8,0.6-2.9,0.6c-1,0-1.8-0.1-2.5-0.4c-0.7-0.3-1.3-0.6-1.7-1.1
							c-0.5-0.4-0.8-0.9-1.1-1.5c-0.3-0.5-0.4-1.1-0.5-1.7l0.4-0.1c0,0.3,0.1,0.6,0.3,1.1c0.2,0.5,0.4,0.9,0.8,1.4
							c0.4,0.5,0.9,0.9,1.6,1.2c0.7,0.3,1.6,0.5,2.6,0.5c0.6,0,1.2-0.1,1.7-0.3c0.5-0.2,1-0.5,1.4-1c0.4-0.5,0.7-1.1,0.9-1.9
							c0.2-0.8,0.3-1.9,0.3-3.1c0-0.6,0-1.3-0.1-1.9c-0.1-0.6-0.3-1.2-0.6-1.7s-0.7-0.9-1.2-1.2c-0.5-0.3-1.2-0.5-2-0.5
							c-0.7,0-1.3,0.1-1.9,0.3c-0.6,0.2-1.1,0.5-1.6,0.8L590.6,347z"/>
						<path class="st3" d="M603.5,347.4c0-1.2,0.1-2.4,0.3-3.7c0.2-1.3,0.5-2.5,1-3.5c0.5-1.1,1.2-2,2.1-2.6c0.9-0.7,2.1-1,3.5-1
							c1.4,0,2.6,0.3,3.5,1c0.9,0.7,1.6,1.6,2.1,2.6c0.5,1.1,0.9,2.3,1,3.5c0.2,1.3,0.3,2.5,0.3,3.7c0,1.2-0.1,2.4-0.3,3.7
							c-0.2,1.3-0.5,2.5-1,3.5c-0.5,1.1-1.2,2-2.1,2.6c-0.9,0.7-2.1,1-3.5,1c-1.4,0-2.6-0.3-3.5-1c-0.9-0.7-1.6-1.6-2.1-2.6
							c-0.5-1.1-0.9-2.3-1-3.5C603.6,349.8,603.5,348.6,603.5,347.4z M606.4,347.4c0,1.8,0.1,3.4,0.2,4.7c0.1,1.3,0.3,2.4,0.6,3.3
							c0.3,0.9,0.7,1.5,1.2,1.9c0.5,0.4,1.2,0.6,2,0.6c0.8,0,1.5-0.2,2-0.6c0.5-0.4,0.9-1,1.2-1.9c0.3-0.9,0.5-1.9,0.6-3.3
							c0.1-1.3,0.2-2.9,0.2-4.7c0-1.8-0.1-3.4-0.2-4.7c-0.1-1.3-0.3-2.4-0.6-3.3c-0.3-0.9-0.7-1.5-1.2-1.9c-0.5-0.4-1.2-0.6-2-0.6
							c-0.8,0-1.5,0.2-2,0.6c-0.5,0.4-0.9,1-1.2,1.9c-0.3,0.9-0.5,1.9-0.6,3.3C606.5,344,606.4,345.6,606.4,347.4z"/>
					</g>
				</g>
				<g>
					<g>
						<path class="st3" d="M511.7,366h0.7l1.9,5.2h-0.7l-0.6-1.6h-2l-0.6,1.6h-0.7L511.7,366z M512.1,366.9L512.1,366.9l-0.8,2.2
							h1.6L512.1,366.9z"/>
						<path class="st3" d="M514.6,366h0.8l1.4,4.3h0l1.5-4.3h0.7l-1.9,5.2h-0.7L514.6,366z"/>
						<path class="st3" d="M520.1,366h3.7v0.6h-3v1.6h2.6v0.6h-2.6v1.8h3v0.6h-3.7V366z"/>
						<path class="st3" d="M525.1,366h0.7l2.8,4.1h0V366h0.6v5.2h-0.7l-2.8-4.1h0v4.1h-0.6V366z"/>
						<path class="st3" d="M534.8,369.5c0,1.2-0.8,1.8-2,1.8c-1.2,0-2-0.7-2-1.8V366h0.7v3.4c0,0.9,0.4,1.4,1.3,1.4s1.3-0.5,1.3-1.4
							V366h0.7V369.5z"/>
						<path class="st3" d="M536.5,366h3.7v0.6h-3v1.6h2.6v0.6h-2.6v1.8h3v0.6h-3.7V366z"/>
						<path class="st3" d="M546.6,365.9c1.6,0,2.6,1.1,2.6,2.7s-1,2.7-2.6,2.7c-1.6,0-2.6-1.1-2.6-2.7S545,365.9,546.6,365.9z
							 M546.6,370.8c1.3,0,1.9-1,1.9-2.2c0-1.2-0.6-2.2-1.9-2.2c-1.3,0-1.9,1-1.9,2.2C544.8,369.8,545.3,370.8,546.6,370.8z"/>
						<path class="st3" d="M550.7,366h3.3v0.6h-2.7v1.6h2.5v0.6h-2.5v2.5h-0.7V366z"/>
						<path class="st3" d="M559.5,366.6h-1.6V366h3.8v0.6h-1.6v4.6h-0.7V366.6z"/>
						<path class="st3" d="M563,366h0.7v2.2h2.9V366h0.7v5.2h-0.7v-2.4h-2.9v2.4H563V366z"/>
						<path class="st3" d="M568.8,366h3.7v0.6h-3v1.6h2.6v0.6h-2.6v1.8h3v0.6h-3.7V366z"/>
						<path class="st3" d="M578.1,366h0.7l1.9,5.2h-0.7l-0.6-1.6h-2l-0.6,1.6h-0.7L578.1,366z M578.4,366.9L578.4,366.9l-0.8,2.2
							h1.6L578.4,366.9z"/>
						<path class="st3" d="M581.9,366h0.9l1.6,4.2l1.6-4.2h0.9v5.2h-0.7v-4.2h0l-1.5,4.2h-0.6l-1.5-4.2h0v4.2h-0.7V366z"/>
						<path class="st3" d="M588.6,366h3.7v0.6h-3v1.6h2.6v0.6h-2.6v1.8h3v0.6h-3.7V366z"/>
						<path class="st3" d="M593.6,366h2.4c0.8,0,1.7,0.3,1.7,1.5c0,0.7-0.3,1.3-1.2,1.5l1.4,2.3h-0.8l-1.4-2.2h-1.3v2.2h-0.7V366z
							 M594.3,368.4h1.6c0.6,0,1.1-0.2,1.1-0.9c0-0.7-0.5-0.9-1.1-0.9h-1.6V368.4z"/>
						<path class="st3" d="M599.2,366h0.7v5.2h-0.7V366z"/>
						<path class="st3" d="M605.7,367.7c-0.2-0.7-0.9-1.2-1.6-1.2c-1.3,0-1.9,1-1.9,2.2c0,1.2,0.6,2.2,1.9,2.2
							c0.9,0,1.6-0.6,1.7-1.5l0.7,0.1c-0.2,1.2-1.3,2-2.4,2c-1.6,0-2.6-1.1-2.6-2.7s1-2.7,2.6-2.7c1.1,0,2.1,0.5,2.4,1.6
							L605.7,367.7z"/>
						<path class="st3" d="M609.4,366h0.7l1.9,5.2h-0.7l-0.6-1.6h-2l-0.6,1.6h-0.7L609.4,366z M609.8,366.9L609.8,366.9l-0.8,2.2
							h1.6L609.8,366.9z"/>
						<path class="st3" d="M616.5,367.6c0-0.8-0.6-1.1-1.3-1.1c-0.5,0-1.2,0.2-1.2,0.8c0,1.4,3.3,0.3,3.3,2.5c0,1.1-1,1.6-2,1.6
							c-1.2,0-2.2-0.5-2.3-1.8l0.7-0.1c0,0.9,0.6,1.3,1.5,1.3c0.7,0,1.3-0.3,1.3-1c0-1.4-3.3-0.5-3.3-2.4c0-1,1-1.5,1.9-1.5
							c1.1,0,2,0.5,2.1,1.6L616.5,367.6z"/>
					</g>
				</g>
			</g>
			<line class="st7" x1="625.9" y1="337" x2="625.9" y2="370.9"/>
		</g>
	</g>
</g>
</svg>
